<?xml version="1.0" encoding="utf-8"?>
<!-- Generator: Adobe Illustrator 23.0.0, SVG Export Plug-In . SVG Version: 6.00 Build 0)  -->
<svg version="1.1" id="Layer_1" xmlns="http://www.w3.org/2000/svg" xmlns:xlink="http://www.w3.org/1999/xlink" x="0px" y="0px"
	 viewBox="0 0 260.1 261.4" style="enable-background:new 0 0 260.1 261.4;" xml:space="preserve">
<style type="text/css">
	.st0{fill:#50B426;}
	.st1{fill:#FEDA15;}
</style>
<circle class="st0" cx="129.7" cy="130.4" r="122.6"/>
<circle class="st1" cx="130.1" cy="131.5" r="102.2"/>
<polygon class="st0" points="129.5,170.6 74.2,170.6 129.5,116.1 184.9,116.1 "/>
<g>
	<path d="M146.4,54.9c-1,5.2-1.9,10.6-2.7,16.1c-0.7,5.5-1.2,11-1.3,16.4h26.8l-4.2,17.7h-22.6v61.6c0,1.6,0.1,3.7,0.4,6.1
		c0.3,2.4,1.1,4.5,2.4,6.3s3.5,2.7,6.4,2.7c2.5,0,5-0.2,7.3-0.7c2.4-0.4,4.7-1,7.1-1.6l3.1,16.8c-3.8,1.2-8.2,2.3-13,3.2
		c-4.8,1-9.2,1.5-13.2,1.5c-9.5,0-16.4-2.2-21-6.7c-4.5-4.5-6.8-11.7-6.8-21.5v-67.7H97.1V90.3c4.6-0.1,8.6-1.3,12-3.5
		c3.4-2.2,6.3-5,8.8-8.5c2.4-3.5,4.4-7.3,6-11.4c1.6-4.1,2.8-8.1,3.7-12H146.4z"/>
</g>
</svg>
